<?xml version="1.0" encoding="UTF-8" standalone="no"?>
<!DOCTYPE svg PUBLIC "-//W3C//DTD SVG 1.1//EN" "http://www.w3.org/Graphics/SVG/1.1/DTD/svg11.dtd">
<svg width="100%" height="100%" viewBox="0 0 24445 9445" version="1.1" xmlns="http://www.w3.org/2000/svg" xmlns:xlink="http://www.w3.org/1999/xlink" xml:space="preserve" xmlns:serif="http://www.serif.com/" style="fill-rule:evenodd;clip-rule:evenodd;stroke-linejoin:round;stroke-miterlimit:2;">
    <g transform="matrix(5.55556,0,0,5.55556,0,0)">
        <g id="svg_1" transform="matrix(1.33333,0,0,1.33333,0,0)">
            <g>
                <g id="svg_2" transform="matrix(1,0,0,1,-432.705,183.148)">
                    <g id="svg_3" transform="matrix(840.016,0,0,840.016,734.057,1101.2)">
                        <path id="svg_4" d="M-0.292,-0.34L-0.292,-1.04L-0.075,-1.04C-0.028,-1.04 0.013,-1.032 0.048,-1.015C0.083,-0.998 0.11,-0.974 0.13,-0.943C0.149,-0.912 0.159,-0.874 0.159,-0.829C0.159,-0.785 0.149,-0.748 0.13,-0.716C0.11,-0.685 0.083,-0.661 0.048,-0.644C0.013,-0.628 -0.028,-0.619 -0.075,-0.619L-0.252,-0.619L-0.252,-0.691L-0.071,-0.691C-0.027,-0.691 0.008,-0.704 0.035,-0.729C0.061,-0.754 0.075,-0.787 0.075,-0.829C0.075,-0.871 0.061,-0.904 0.035,-0.929C0.008,-0.954 -0.027,-0.966 -0.071,-0.966L-0.242,-0.966L-0.207,-1L-0.207,-0.34L-0.292,-0.34Z" style="fill:rgb(169,171,125);fill-rule:nonzero;"/>
                    </g>
                    <g id="svg_5" transform="matrix(840.016,0,0,840.016,1269.87,1101.2)">
                        <path id="svg_6" d="M-0.368,-0.34L-0.102,-1.04L0.001,-1.04L0.267,-0.34L0.179,-0.34L-0.057,-0.974L-0.043,-0.974L-0.281,-0.34L-0.368,-0.34ZM-0.258,-0.531L-0.23,-0.604L0.13,-0.604L0.159,-0.531L-0.258,-0.531Z" style="fill:rgb(169,171,125);fill-rule:nonzero;"/>
                    </g>
                    <g id="svg_7" transform="matrix(840.016,0,0,840.016,1922.56,1101.2)">
                        <path id="svg_8" d="M-0.317,-0.34L-0.317,-0.43L-0.071,-0.678C-0.051,-0.698 -0.035,-0.716 -0.024,-0.733C-0.013,-0.75 -0.004,-0.767 0.001,-0.783C0.006,-0.799 0.009,-0.815 0.009,-0.83C0.009,-0.862 -0.001,-0.888 -0.021,-0.907C-0.04,-0.926 -0.067,-0.935 -0.1,-0.935C-0.13,-0.935 -0.156,-0.927 -0.18,-0.911C-0.205,-0.895 -0.227,-0.872 -0.249,-0.842L-0.327,-0.919C-0.3,-0.96 -0.267,-0.992 -0.228,-1.015C-0.189,-1.038 -0.145,-1.05 -0.096,-1.05C-0.05,-1.05 -0.011,-1.041 0.024,-1.024C0.058,-1.006 0.085,-0.982 0.104,-0.951C0.123,-0.92 0.133,-0.884 0.133,-0.843C0.133,-0.818 0.129,-0.794 0.121,-0.769C0.113,-0.744 0.101,-0.718 0.084,-0.692C0.066,-0.665 0.043,-0.637 0.014,-0.608L-0.176,-0.417L-0.182,-0.449L0.162,-0.449L0.162,-0.34L-0.317,-0.34Z" style="fill:rgb(230,156,30);fill-rule:nonzero;"/>
                    </g>
                    <g id="svg_9" transform="matrix(840.016,0,0,840.016,2527.37,1101.2)">
                        <path id="svg_10" d="M0.008,-0.328C-0.057,-0.328 -0.115,-0.343 -0.166,-0.374C-0.217,-0.404 -0.258,-0.446 -0.287,-0.5C-0.316,-0.554 -0.33,-0.617 -0.33,-0.688L-0.33,-0.697C-0.33,-0.767 -0.316,-0.829 -0.287,-0.882C-0.258,-0.936 -0.217,-0.977 -0.166,-1.007C-0.115,-1.037 -0.057,-1.052 0.008,-1.052C0.074,-1.052 0.132,-1.037 0.182,-1.007C0.233,-0.977 0.273,-0.936 0.302,-0.882C0.331,-0.829 0.346,-0.767 0.346,-0.697L0.346,-0.688C0.346,-0.617 0.331,-0.554 0.302,-0.5C0.273,-0.446 0.233,-0.404 0.182,-0.374C0.132,-0.343 0.074,-0.328 0.008,-0.328ZM0.008,-0.411C0.057,-0.411 0.1,-0.423 0.138,-0.446C0.175,-0.468 0.205,-0.501 0.226,-0.542C0.248,-0.584 0.259,-0.632 0.259,-0.688L0.259,-0.697C0.259,-0.752 0.248,-0.799 0.226,-0.84C0.205,-0.881 0.175,-0.912 0.138,-0.935C0.1,-0.957 0.057,-0.969 0.008,-0.969C-0.041,-0.969 -0.084,-0.957 -0.122,-0.935C-0.159,-0.912 -0.189,-0.881 -0.211,-0.84C-0.232,-0.799 -0.243,-0.752 -0.243,-0.697L-0.243,-0.688C-0.243,-0.632 -0.232,-0.584 -0.211,-0.542C-0.189,-0.501 -0.159,-0.468 -0.122,-0.446C-0.084,-0.423 -0.041,-0.411 0.008,-0.411Z" style="fill:rgb(110,112,94);fill-rule:nonzero;"/>
                    </g>
                    <g id="svg_11" transform="matrix(840.016,0,0,840.016,3277.99,1101.2)">
                        <path id="svg_12" d="M-0.292,-0.34L-0.292,-1.04L-0.178,-1.04L0.043,-0.58L0.004,-0.58L0.225,-1.04L0.339,-1.04L0.339,-0.34L0.256,-0.34L0.256,-0.99L0.284,-0.99L0.057,-0.507L-0.01,-0.507L-0.237,-0.99L-0.208,-0.99L-0.208,-0.34L-0.292,-0.34Z" style="fill:rgb(110,112,94);fill-rule:nonzero;"/>
                    </g>
                </g>
                <g id="svg_14" transform="matrix(0.647719,0,0,0.647719,75.7306,638.386)">
                    <g id="svg_15">
                        <g id="svg_16" transform="matrix(192.985,0,0,192.985,455.997,1355.82)">
                            <path id="svg_17" d="M-2.471,-2.287L-2.471,-2.987L-2.236,-2.987C-2.187,-2.987 -2.143,-2.978 -2.107,-2.961C-2.07,-2.943 -2.042,-2.918 -2.021,-2.886C-2.001,-2.853 -1.99,-2.813 -1.99,-2.767C-1.99,-2.722 -2.001,-2.682 -2.021,-2.65C-2.042,-2.617 -2.07,-2.592 -2.107,-2.575C-2.143,-2.557 -2.187,-2.549 -2.236,-2.549L-2.415,-2.549L-2.415,-2.651L-2.23,-2.651C-2.194,-2.651 -2.165,-2.662 -2.144,-2.683C-2.122,-2.705 -2.112,-2.733 -2.112,-2.767C-2.112,-2.801 -2.122,-2.829 -2.144,-2.851C-2.165,-2.872 -2.194,-2.883 -2.23,-2.883L-2.4,-2.883L-2.349,-2.93L-2.349,-2.287L-2.471,-2.287Z" style="fill:rgb(169,171,125);fill-rule:nonzero;"/>
                        </g>
                        <g id="svg_18" transform="matrix(128.657,0,0,128.657,576.502,1355.82)">
                            <path id="svg_19" d="M-3.636,-3.431C-3.67,-3.431 -3.698,-3.442 -3.719,-3.464C-3.741,-3.486 -3.752,-3.514 -3.752,-3.548L-3.752,-4.014C-3.752,-4.048 -3.741,-4.076 -3.719,-4.098C-3.698,-4.12 -3.67,-4.131 -3.636,-4.131L-3.295,-4.131L-3.295,-4.019L-3.595,-4.019C-3.605,-4.019 -3.614,-4.016 -3.621,-4.009C-3.628,-4.002 -3.631,-3.993 -3.631,-3.983L-3.631,-3.579C-3.631,-3.569 -3.628,-3.56 -3.621,-3.553C-3.614,-3.546 -3.605,-3.543 -3.595,-3.543L-3.295,-3.543L-3.295,-3.431L-3.636,-3.431ZM-3.693,-3.729L-3.693,-3.836L-3.316,-3.836L-3.316,-3.729L-3.693,-3.729Z" style="fill:rgb(169,171,125);fill-rule:nonzero;"/>
                        </g>
                        <g id="svg_20" transform="matrix(128.657,0,0,128.657,656.435,1355.82)">
                            <path id="svg_21" d="M-3.746,-3.431L-3.746,-4.131L-3.496,-4.131C-3.422,-4.131 -3.363,-4.112 -3.318,-4.075C-3.274,-4.037 -3.251,-3.983 -3.251,-3.911C-3.251,-3.838 -3.274,-3.783 -3.318,-3.746C-3.363,-3.709 -3.422,-3.69 -3.496,-3.69L-3.69,-3.69L-3.69,-3.793L-3.502,-3.793C-3.464,-3.793 -3.434,-3.803 -3.411,-3.823C-3.388,-3.843 -3.377,-3.872 -3.377,-3.909C-3.377,-3.945 -3.388,-3.974 -3.411,-3.995C-3.434,-4.017 -3.464,-4.027 -3.502,-4.027L-3.675,-4.027L-3.624,-4.074L-3.624,-3.431L-3.746,-3.431ZM-3.371,-3.431L-3.546,-3.743L-3.413,-3.743L-3.23,-3.431L-3.371,-3.431Z" style="fill:rgb(169,171,125);fill-rule:nonzero;"/>
                        </g>
                        <g id="svg_22" transform="matrix(128.657,0,0,128.657,741.936,1355.82)">
                            <path id="svg_23" d="M-3.749,-3.431L-3.749,-4.014C-3.749,-4.048 -3.738,-4.076 -3.716,-4.098C-3.694,-4.12 -3.666,-4.131 -3.632,-4.131L-3.298,-4.131L-3.298,-4.019L-3.59,-4.019C-3.6,-4.019 -3.609,-4.016 -3.616,-4.009C-3.623,-4.002 -3.626,-3.993 -3.626,-3.983L-3.626,-3.431L-3.749,-3.431ZM-3.686,-3.702L-3.686,-3.812L-3.322,-3.812L-3.322,-3.702L-3.686,-3.702Z" style="fill:rgb(169,171,125);fill-rule:nonzero;"/>
                        </g>
                        <g id="svg_24" transform="matrix(128.657,0,0,128.657,816.98,1355.82)">
                            <path id="svg_25" d="M-3.438,-3.417C-3.504,-3.417 -3.563,-3.433 -3.615,-3.463C-3.667,-3.494 -3.708,-3.536 -3.738,-3.59C-3.768,-3.644 -3.783,-3.707 -3.783,-3.778L-3.783,-3.786C-3.783,-3.858 -3.768,-3.92 -3.738,-3.974C-3.708,-4.027 -3.667,-4.069 -3.615,-4.099C-3.563,-4.13 -3.504,-4.145 -3.438,-4.145C-3.372,-4.145 -3.313,-4.13 -3.261,-4.099C-3.21,-4.069 -3.169,-4.027 -3.139,-3.974C-3.109,-3.92 -3.094,-3.858 -3.094,-3.786L-3.094,-3.778C-3.094,-3.707 -3.109,-3.644 -3.139,-3.59C-3.169,-3.536 -3.21,-3.494 -3.261,-3.463C-3.313,-3.433 -3.372,-3.417 -3.438,-3.417ZM-3.438,-3.537C-3.396,-3.537 -3.358,-3.547 -3.325,-3.566C-3.292,-3.586 -3.267,-3.613 -3.248,-3.65C-3.229,-3.686 -3.22,-3.729 -3.22,-3.778L-3.22,-3.786C-3.22,-3.835 -3.229,-3.877 -3.248,-3.913C-3.267,-3.949 -3.292,-3.976 -3.325,-3.996C-3.358,-4.015 -3.396,-4.025 -3.438,-4.025C-3.48,-4.025 -3.518,-4.015 -3.551,-3.996C-3.584,-3.976 -3.61,-3.949 -3.629,-3.913C-3.648,-3.877 -3.657,-3.835 -3.657,-3.786L-3.657,-3.778C-3.657,-3.729 -3.648,-3.686 -3.629,-3.65C-3.61,-3.613 -3.584,-3.586 -3.551,-3.566C-3.518,-3.547 -3.48,-3.537 -3.438,-3.537Z" style="fill:rgb(169,171,125);fill-rule:nonzero;"/>
                        </g>
                        <g id="svg_26" transform="matrix(128.657,0,0,128.657,921.614,1355.82)">
                            <path id="svg_27" d="M-3.746,-3.431L-3.746,-4.131L-3.496,-4.131C-3.422,-4.131 -3.363,-4.112 -3.318,-4.075C-3.274,-4.037 -3.251,-3.983 -3.251,-3.911C-3.251,-3.838 -3.274,-3.783 -3.318,-3.746C-3.363,-3.709 -3.422,-3.69 -3.496,-3.69L-3.69,-3.69L-3.69,-3.793L-3.502,-3.793C-3.464,-3.793 -3.434,-3.803 -3.411,-3.823C-3.388,-3.843 -3.377,-3.872 -3.377,-3.909C-3.377,-3.945 -3.388,-3.974 -3.411,-3.995C-3.434,-4.017 -3.464,-4.027 -3.502,-4.027L-3.675,-4.027L-3.624,-4.074L-3.624,-3.431L-3.746,-3.431ZM-3.371,-3.431L-3.546,-3.743L-3.413,-3.743L-3.23,-3.431L-3.371,-3.431Z" style="fill:rgb(169,171,125);fill-rule:nonzero;"/>
                        </g>
                        <g id="svg_28" transform="matrix(128.657,0,0,128.657,1007.12,1355.82)">
                            <path id="svg_29" d="M-3.746,-3.431L-3.746,-4.131L-3.582,-4.131L-3.382,-3.686L-3.439,-3.686L-3.239,-4.131L-3.074,-4.131L-3.074,-3.431L-3.194,-3.431L-3.194,-4.07L-3.151,-4.069L-3.364,-3.58L-3.456,-3.58L-3.67,-4.069L-3.627,-4.07L-3.627,-3.431L-3.746,-3.431Z" style="fill:rgb(169,171,125);fill-rule:nonzero;"/>
                        </g>
                        <g id="svg_30" transform="matrix(128.657,0,0,128.657,1118.96,1355.82)">
                            <path id="svg_31" d="M-3.819,-3.431L-3.563,-4.131L-3.412,-4.131L-3.157,-3.431L-3.283,-3.431L-3.496,-4.037L-3.479,-4.037L-3.693,-3.431L-3.819,-3.431ZM-3.707,-3.603L-3.667,-3.707L-3.307,-3.707L-3.266,-3.603L-3.707,-3.603Z" style="fill:rgb(169,171,125);fill-rule:nonzero;"/>
                        </g>
                        <g id="svg_32" transform="matrix(128.657,0,0,128.657,1210.94,1355.82)">
                            <path id="svg_33" d="M-3.746,-3.431L-3.746,-4.131L-3.635,-4.131L-3.26,-3.571L-3.312,-3.562L-3.312,-4.131L-3.189,-4.131L-3.189,-3.431L-3.298,-3.431L-3.671,-3.986L-3.624,-3.994L-3.624,-3.431L-3.746,-3.431Z" style="fill:rgb(169,171,125);fill-rule:nonzero;"/>
                        </g>
                        <g id="svg_34" transform="matrix(128.657,0,0,128.657,1308.03,1355.82)">
                            <path id="svg_35" d="M-3.423,-3.416C-3.473,-3.416 -3.52,-3.425 -3.564,-3.442C-3.608,-3.46 -3.646,-3.485 -3.679,-3.516C-3.712,-3.548 -3.738,-3.586 -3.756,-3.63C-3.774,-3.674 -3.784,-3.722 -3.784,-3.774L-3.784,-3.788C-3.784,-3.84 -3.774,-3.888 -3.756,-3.932C-3.738,-3.976 -3.712,-4.014 -3.679,-4.046C-3.646,-4.077 -3.608,-4.102 -3.564,-4.12C-3.52,-4.137 -3.473,-4.146 -3.423,-4.146C-3.377,-4.146 -3.334,-4.139 -3.296,-4.124C-3.257,-4.11 -3.223,-4.089 -3.192,-4.062L-3.271,-3.97C-3.312,-4.007 -3.363,-4.026 -3.423,-4.026C-3.457,-4.026 -3.488,-4.02 -3.517,-4.009C-3.545,-3.997 -3.57,-3.981 -3.591,-3.96C-3.613,-3.939 -3.629,-3.913 -3.641,-3.884C-3.652,-3.855 -3.658,-3.823 -3.658,-3.788L-3.658,-3.774C-3.658,-3.739 -3.652,-3.707 -3.641,-3.678C-3.629,-3.649 -3.613,-3.623 -3.591,-3.602C-3.57,-3.581 -3.545,-3.565 -3.517,-3.553C-3.488,-3.542 -3.457,-3.536 -3.423,-3.536C-3.362,-3.536 -3.31,-3.556 -3.267,-3.596L-3.188,-3.504C-3.219,-3.476 -3.255,-3.455 -3.294,-3.439C-3.334,-3.424 -3.377,-3.416 -3.423,-3.416Z" style="fill:rgb(169,171,125);fill-rule:nonzero;"/>
                        </g>
                        <g id="svg_36" transform="matrix(128.657,0,0,128.657,1397.24,1355.82)">
                            <path id="svg_37" d="M-3.636,-3.431C-3.67,-3.431 -3.698,-3.442 -3.719,-3.464C-3.741,-3.486 -3.752,-3.514 -3.752,-3.548L-3.752,-4.014C-3.752,-4.048 -3.741,-4.076 -3.719,-4.098C-3.698,-4.12 -3.67,-4.131 -3.636,-4.131L-3.295,-4.131L-3.295,-4.019L-3.595,-4.019C-3.605,-4.019 -3.614,-4.016 -3.621,-4.009C-3.628,-4.002 -3.631,-3.993 -3.631,-3.983L-3.631,-3.579C-3.631,-3.569 -3.628,-3.56 -3.621,-3.553C-3.614,-3.546 -3.605,-3.543 -3.595,-3.543L-3.295,-3.543L-3.295,-3.431L-3.636,-3.431ZM-3.693,-3.729L-3.693,-3.836L-3.316,-3.836L-3.316,-3.729L-3.693,-3.729Z" style="fill:rgb(169,171,125);fill-rule:nonzero;"/>
                        </g>
                        <g id="svg_40" transform="matrix(192.985,0,0,192.985,1544.55,1355.82)">
                            <path id="svg_41" d="M-2.544,-2.287L-2.288,-2.987L-2.137,-2.987L-1.882,-2.287L-2.008,-2.287L-2.221,-2.893L-2.204,-2.893L-2.418,-2.287L-2.544,-2.287ZM-2.432,-2.459L-2.392,-2.563L-2.032,-2.563L-1.991,-2.459L-2.432,-2.459Z" style="fill:rgb(169,171,125);fill-rule:nonzero;"/>
                        </g>
                        <g id="svg_42" transform="matrix(128.657,0,0,128.657,1682.54,1355.82)">
                            <path id="svg_43" d="M-3.746,-3.431L-3.746,-4.131L-3.494,-4.131C-3.445,-4.131 -3.399,-4.123 -3.357,-4.106C-3.315,-4.09 -3.278,-4.066 -3.247,-4.036C-3.215,-4.005 -3.191,-3.969 -3.174,-3.927C-3.156,-3.886 -3.148,-3.84 -3.148,-3.789L-3.148,-3.778C-3.148,-3.727 -3.156,-3.68 -3.174,-3.638C-3.192,-3.596 -3.216,-3.559 -3.248,-3.528C-3.279,-3.497 -3.316,-3.473 -3.358,-3.456C-3.4,-3.439 -3.446,-3.431 -3.494,-3.431L-3.746,-3.431ZM-3.624,-3.494L-3.675,-3.546L-3.504,-3.546C-3.459,-3.546 -3.42,-3.556 -3.385,-3.575C-3.35,-3.595 -3.322,-3.622 -3.303,-3.657C-3.283,-3.692 -3.273,-3.732 -3.273,-3.778L-3.273,-3.789C-3.273,-3.835 -3.283,-3.875 -3.302,-3.908C-3.322,-3.942 -3.349,-3.969 -3.384,-3.988C-3.418,-4.007 -3.458,-4.016 -3.504,-4.016L-3.675,-4.016L-3.624,-4.068L-3.624,-3.494Z" style="fill:rgb(169,171,125);fill-rule:nonzero;"/>
                        </g>
                        <g id="svg_44" transform="matrix(128.657,0,0,128.657,1777.87,1355.82)">
                            <path id="svg_45" d="M-3.564,-3.431L-3.818,-4.131L-3.688,-4.131L-3.475,-3.524L-3.519,-3.524L-3.307,-4.131L-3.176,-4.131L-3.432,-3.431L-3.564,-3.431Z" style="fill:rgb(169,171,125);fill-rule:nonzero;"/>
                        </g>
                        <g id="svg_46" transform="matrix(128.657,0,0,128.657,1859.44,1355.82)">
                            <path id="svg_47" d="M-3.819,-3.431L-3.563,-4.131L-3.412,-4.131L-3.157,-3.431L-3.283,-3.431L-3.496,-4.037L-3.479,-4.037L-3.693,-3.431L-3.819,-3.431ZM-3.707,-3.603L-3.667,-3.707L-3.307,-3.707L-3.266,-3.603L-3.707,-3.603Z" style="fill:rgb(169,171,125);fill-rule:nonzero;"/>
                        </g>
                        <g id="svg_48" transform="matrix(128.657,0,0,128.657,1951.43,1355.82)">
                            <path id="svg_49" d="M-3.746,-3.431L-3.746,-4.131L-3.635,-4.131L-3.26,-3.571L-3.312,-3.562L-3.312,-4.131L-3.189,-4.131L-3.189,-3.431L-3.298,-3.431L-3.671,-3.986L-3.624,-3.994L-3.624,-3.431L-3.746,-3.431Z" style="fill:rgb(169,171,125);fill-rule:nonzero;"/>
                        </g>
                        <g id="svg_50" transform="matrix(128.657,0,0,128.657,2048.51,1355.82)">
                            <path id="svg_51" d="M-3.423,-3.416C-3.473,-3.416 -3.52,-3.425 -3.564,-3.442C-3.608,-3.46 -3.646,-3.485 -3.679,-3.516C-3.712,-3.548 -3.738,-3.586 -3.756,-3.63C-3.774,-3.674 -3.784,-3.722 -3.784,-3.774L-3.784,-3.788C-3.784,-3.84 -3.774,-3.888 -3.756,-3.932C-3.738,-3.976 -3.712,-4.014 -3.679,-4.046C-3.646,-4.077 -3.608,-4.102 -3.564,-4.12C-3.52,-4.137 -3.473,-4.146 -3.423,-4.146C-3.377,-4.146 -3.334,-4.139 -3.296,-4.124C-3.257,-4.11 -3.223,-4.089 -3.192,-4.062L-3.271,-3.97C-3.312,-4.007 -3.363,-4.026 -3.423,-4.026C-3.457,-4.026 -3.488,-4.02 -3.517,-4.009C-3.545,-3.997 -3.57,-3.981 -3.591,-3.96C-3.613,-3.939 -3.629,-3.913 -3.641,-3.884C-3.652,-3.855 -3.658,-3.823 -3.658,-3.788L-3.658,-3.774C-3.658,-3.739 -3.652,-3.707 -3.641,-3.678C-3.629,-3.649 -3.613,-3.623 -3.591,-3.602C-3.57,-3.581 -3.545,-3.565 -3.517,-3.553C-3.488,-3.542 -3.457,-3.536 -3.423,-3.536C-3.362,-3.536 -3.31,-3.556 -3.267,-3.596L-3.188,-3.504C-3.219,-3.476 -3.255,-3.455 -3.294,-3.439C-3.334,-3.424 -3.377,-3.416 -3.423,-3.416Z" style="fill:rgb(169,171,125);fill-rule:nonzero;"/>
                        </g>
                        <g id="svg_52" transform="matrix(128.657,0,0,128.657,2137.72,1355.82)">
                            <path id="svg_53" d="M-3.636,-3.431C-3.67,-3.431 -3.698,-3.442 -3.719,-3.464C-3.741,-3.486 -3.752,-3.514 -3.752,-3.548L-3.752,-4.014C-3.752,-4.048 -3.741,-4.076 -3.719,-4.098C-3.698,-4.12 -3.67,-4.131 -3.636,-4.131L-3.295,-4.131L-3.295,-4.019L-3.595,-4.019C-3.605,-4.019 -3.614,-4.016 -3.621,-4.009C-3.628,-4.002 -3.631,-3.993 -3.631,-3.983L-3.631,-3.579C-3.631,-3.569 -3.628,-3.56 -3.621,-3.553C-3.614,-3.546 -3.605,-3.543 -3.595,-3.543L-3.295,-3.543L-3.295,-3.431L-3.636,-3.431ZM-3.693,-3.729L-3.693,-3.836L-3.316,-3.836L-3.316,-3.729L-3.693,-3.729Z" style="fill:rgb(169,171,125);fill-rule:nonzero;"/>
                        </g>
                        <g id="svg_54" transform="matrix(128.657,0,0,128.657,2217.66,1355.82)">
                            <path id="svg_55" d="M-3.746,-3.431L-3.746,-4.131L-3.582,-4.131L-3.382,-3.686L-3.439,-3.686L-3.239,-4.131L-3.074,-4.131L-3.074,-3.431L-3.194,-3.431L-3.194,-4.07L-3.151,-4.069L-3.364,-3.58L-3.456,-3.58L-3.67,-4.069L-3.627,-4.07L-3.627,-3.431L-3.746,-3.431Z" style="fill:rgb(169,171,125);fill-rule:nonzero;"/>
                        </g>
                        <g id="svg_56" transform="matrix(128.657,0,0,128.657,2329.5,1355.82)">
                            <path id="svg_57" d="M-3.636,-3.431C-3.67,-3.431 -3.698,-3.442 -3.719,-3.464C-3.741,-3.486 -3.752,-3.514 -3.752,-3.548L-3.752,-4.014C-3.752,-4.048 -3.741,-4.076 -3.719,-4.098C-3.698,-4.12 -3.67,-4.131 -3.636,-4.131L-3.295,-4.131L-3.295,-4.019L-3.595,-4.019C-3.605,-4.019 -3.614,-4.016 -3.621,-4.009C-3.628,-4.002 -3.631,-3.993 -3.631,-3.983L-3.631,-3.579C-3.631,-3.569 -3.628,-3.56 -3.621,-3.553C-3.614,-3.546 -3.605,-3.543 -3.595,-3.543L-3.295,-3.543L-3.295,-3.431L-3.636,-3.431ZM-3.693,-3.729L-3.693,-3.836L-3.316,-3.836L-3.316,-3.729L-3.693,-3.729Z" style="fill:rgb(169,171,125);fill-rule:nonzero;"/>
                        </g>
                        <g id="svg_58" transform="matrix(128.657,0,0,128.657,2409.43,1355.82)">
                            <path id="svg_59" d="M-3.746,-3.431L-3.746,-4.131L-3.635,-4.131L-3.26,-3.571L-3.312,-3.562L-3.312,-4.131L-3.189,-4.131L-3.189,-3.431L-3.298,-3.431L-3.671,-3.986L-3.624,-3.994L-3.624,-3.431L-3.746,-3.431Z" style="fill:rgb(169,171,125);fill-rule:nonzero;"/>
                        </g>
                        <g id="svg_60" transform="matrix(128.657,0,0,128.657,2506.51,1355.82)">
                            <path id="svg_61" d="M-3.612,-3.431L-3.612,-4.079L-3.488,-4.079L-3.488,-3.431L-3.612,-3.431ZM-3.811,-4.019L-3.811,-4.131L-3.286,-4.131L-3.286,-4.019L-3.811,-4.019Z" style="fill:rgb(169,171,125);fill-rule:nonzero;"/>
                        </g>
                        <g id="svg_62" transform="matrix(128.657,0,0,128.657,2579.66,1355.82)">
                            <path id="svg_63" d="M-3.559,-3.417C-3.611,-3.417 -3.657,-3.427 -3.695,-3.446C-3.734,-3.466 -3.767,-3.491 -3.794,-3.523L-3.718,-3.599C-3.691,-3.571 -3.664,-3.551 -3.638,-3.539C-3.612,-3.527 -3.584,-3.521 -3.555,-3.521C-3.515,-3.521 -3.485,-3.53 -3.463,-3.549C-3.44,-3.567 -3.429,-3.591 -3.429,-3.62C-3.429,-3.643 -3.436,-3.662 -3.448,-3.676C-3.461,-3.69 -3.477,-3.701 -3.498,-3.71C-3.519,-3.719 -3.542,-3.727 -3.567,-3.735C-3.591,-3.742 -3.616,-3.75 -3.641,-3.758C-3.666,-3.767 -3.688,-3.778 -3.709,-3.792C-3.73,-3.806 -3.747,-3.825 -3.759,-3.847C-3.772,-3.87 -3.778,-3.898 -3.778,-3.932C-3.778,-3.976 -3.768,-4.013 -3.748,-4.045C-3.728,-4.077 -3.699,-4.101 -3.662,-4.119C-3.626,-4.136 -3.583,-4.145 -3.534,-4.145C-3.489,-4.145 -3.448,-4.137 -3.412,-4.121C-3.375,-4.105 -3.345,-4.084 -3.322,-4.057L-3.4,-3.979C-3.42,-4 -3.441,-4.015 -3.462,-4.026C-3.484,-4.036 -3.508,-4.041 -3.535,-4.041C-3.571,-4.041 -3.601,-4.032 -3.623,-4.015C-3.645,-3.997 -3.656,-3.973 -3.656,-3.944C-3.656,-3.922 -3.65,-3.905 -3.637,-3.892C-3.624,-3.879 -3.607,-3.868 -3.587,-3.861C-3.566,-3.853 -3.543,-3.846 -3.518,-3.839C-3.492,-3.833 -3.467,-3.825 -3.442,-3.817C-3.417,-3.808 -3.394,-3.797 -3.373,-3.783C-3.352,-3.769 -3.336,-3.75 -3.323,-3.727C-3.31,-3.704 -3.304,-3.674 -3.304,-3.638C-3.304,-3.594 -3.314,-3.555 -3.336,-3.522C-3.357,-3.489 -3.387,-3.463 -3.426,-3.445C-3.464,-3.427 -3.508,-3.417 -3.559,-3.417Z" style="fill:rgb(169,171,125);fill-rule:nonzero;"/>
                        </g>
                        <g id="svg_64" transform="matrix(192.985,0,0,192.985,2723.75,1355.82)">
                            <path id="svg_65" d="M-2.337,-2.287L-2.337,-2.935L-2.213,-2.935L-2.213,-2.287L-2.337,-2.287ZM-2.536,-2.875L-2.536,-2.987L-2.011,-2.987L-2.011,-2.875L-2.536,-2.875Z" style="fill:rgb(230,156,30);fill-rule:nonzero;"/>
                        </g>
                        <g id="svg_66" transform="matrix(128.657,0,0,128.657,2838.11,1355.82)">
                            <path id="svg_67" d="M-3.293,-3.431L-3.293,-4.131L-3.169,-4.131L-3.169,-3.431L-3.293,-3.431ZM-3.746,-3.431L-3.746,-4.131L-3.623,-4.131L-3.623,-3.431L-3.746,-3.431ZM-3.682,-3.736L-3.682,-3.848L-3.245,-3.848L-3.245,-3.736L-3.682,-3.736Z" style="fill:rgb(230,156,30);fill-rule:nonzero;"/>
                        </g>
                        <g id="svg_68" transform="matrix(128.657,0,0,128.657,2937.73,1355.82)">
                            <path id="svg_69" d="M-3.746,-3.431L-3.746,-4.131L-3.496,-4.131C-3.422,-4.131 -3.363,-4.112 -3.318,-4.075C-3.274,-4.037 -3.251,-3.983 -3.251,-3.911C-3.251,-3.838 -3.274,-3.783 -3.318,-3.746C-3.363,-3.709 -3.422,-3.69 -3.496,-3.69L-3.69,-3.69L-3.69,-3.793L-3.502,-3.793C-3.464,-3.793 -3.434,-3.803 -3.411,-3.823C-3.388,-3.843 -3.377,-3.872 -3.377,-3.909C-3.377,-3.945 -3.388,-3.974 -3.411,-3.995C-3.434,-4.017 -3.464,-4.027 -3.502,-4.027L-3.675,-4.027L-3.624,-4.074L-3.624,-3.431L-3.746,-3.431ZM-3.371,-3.431L-3.546,-3.743L-3.413,-3.743L-3.23,-3.431L-3.371,-3.431Z" style="fill:rgb(230,156,30);fill-rule:nonzero;"/>
                        </g>
                        <g id="svg_70" transform="matrix(128.657,0,0,128.657,3022.33,1355.82)">
                            <path id="svg_71" d="M-3.438,-3.417C-3.504,-3.417 -3.563,-3.433 -3.615,-3.463C-3.667,-3.494 -3.708,-3.536 -3.738,-3.59C-3.768,-3.644 -3.783,-3.707 -3.783,-3.778L-3.783,-3.786C-3.783,-3.858 -3.768,-3.92 -3.738,-3.974C-3.708,-4.027 -3.667,-4.069 -3.615,-4.099C-3.563,-4.13 -3.504,-4.145 -3.438,-4.145C-3.372,-4.145 -3.313,-4.13 -3.261,-4.099C-3.21,-4.069 -3.169,-4.027 -3.139,-3.974C-3.109,-3.92 -3.094,-3.858 -3.094,-3.786L-3.094,-3.778C-3.094,-3.707 -3.109,-3.644 -3.139,-3.59C-3.169,-3.536 -3.21,-3.494 -3.261,-3.463C-3.313,-3.433 -3.372,-3.417 -3.438,-3.417ZM-3.438,-3.537C-3.396,-3.537 -3.358,-3.547 -3.325,-3.566C-3.292,-3.586 -3.267,-3.613 -3.248,-3.65C-3.229,-3.686 -3.22,-3.729 -3.22,-3.778L-3.22,-3.786C-3.22,-3.835 -3.229,-3.877 -3.248,-3.913C-3.267,-3.949 -3.292,-3.976 -3.325,-3.996C-3.358,-4.015 -3.396,-4.025 -3.438,-4.025C-3.48,-4.025 -3.518,-4.015 -3.551,-3.996C-3.584,-3.976 -3.61,-3.949 -3.629,-3.913C-3.648,-3.877 -3.657,-3.835 -3.657,-3.786L-3.657,-3.778C-3.657,-3.729 -3.648,-3.686 -3.629,-3.65C-3.61,-3.613 -3.584,-3.586 -3.551,-3.566C-3.518,-3.547 -3.48,-3.537 -3.438,-3.537Z" style="fill:rgb(230,156,30);fill-rule:nonzero;"/>
                        </g>
                        <g id="svg_72" transform="matrix(128.657,0,0,128.657,3126.96,1355.82)">
                            <path id="svg_73" d="M-3.481,-3.417C-3.563,-3.417 -3.629,-3.439 -3.678,-3.481C-3.728,-3.523 -3.752,-3.587 -3.752,-3.673L-3.752,-4.131L-3.629,-4.131L-3.629,-3.683C-3.629,-3.632 -3.616,-3.594 -3.589,-3.569C-3.562,-3.544 -3.526,-3.531 -3.481,-3.531C-3.436,-3.531 -3.4,-3.544 -3.373,-3.569C-3.346,-3.594 -3.332,-3.632 -3.332,-3.683L-3.332,-4.131L-3.209,-4.131L-3.209,-3.673C-3.209,-3.616 -3.221,-3.569 -3.243,-3.531C-3.266,-3.493 -3.297,-3.464 -3.338,-3.446C-3.378,-3.427 -3.426,-3.417 -3.481,-3.417Z" style="fill:rgb(230,156,30);fill-rule:nonzero;"/>
                        </g>
                        <g id="svg_74" transform="matrix(128.657,0,0,128.657,3220.66,1355.82)">
                            <path id="svg_75" d="M-3.429,-3.416C-3.498,-3.416 -3.559,-3.431 -3.613,-3.462C-3.666,-3.492 -3.708,-3.534 -3.738,-3.589C-3.768,-3.643 -3.783,-3.705 -3.783,-3.775L-3.783,-3.786C-3.783,-3.857 -3.768,-3.919 -3.738,-3.974C-3.707,-4.028 -3.665,-4.07 -3.61,-4.1C-3.556,-4.131 -3.493,-4.146 -3.423,-4.146C-3.373,-4.146 -3.328,-4.138 -3.287,-4.121C-3.246,-4.104 -3.21,-4.08 -3.178,-4.049L-3.263,-3.963C-3.285,-3.986 -3.309,-4.003 -3.336,-4.014C-3.363,-4.024 -3.391,-4.029 -3.421,-4.029C-3.467,-4.029 -3.508,-4.019 -3.544,-3.998C-3.58,-3.977 -3.607,-3.949 -3.628,-3.912C-3.648,-3.876 -3.658,-3.834 -3.658,-3.786L-3.658,-3.775C-3.658,-3.727 -3.648,-3.685 -3.628,-3.649C-3.608,-3.612 -3.58,-3.583 -3.545,-3.563C-3.51,-3.542 -3.471,-3.531 -3.426,-3.531C-3.394,-3.531 -3.366,-3.537 -3.341,-3.548C-3.316,-3.559 -3.295,-3.575 -3.277,-3.594C-3.26,-3.613 -3.248,-3.636 -3.24,-3.663C-3.233,-3.689 -3.231,-3.717 -3.236,-3.747L-3.183,-3.713L-3.401,-3.713L-3.401,-3.813L-3.114,-3.813C-3.107,-3.754 -3.11,-3.701 -3.121,-3.652C-3.133,-3.604 -3.153,-3.562 -3.181,-3.527C-3.209,-3.491 -3.244,-3.464 -3.285,-3.445C-3.327,-3.426 -3.375,-3.416 -3.429,-3.416Z" style="fill:rgb(230,156,30);fill-rule:nonzero;"/>
                        </g>
                        <g id="svg_76" transform="matrix(128.657,0,0,128.657,3321.46,1355.82)">
                            <path id="svg_77" d="M-3.293,-3.431L-3.293,-4.131L-3.169,-4.131L-3.169,-3.431L-3.293,-3.431ZM-3.746,-3.431L-3.746,-4.131L-3.623,-4.131L-3.623,-3.431L-3.746,-3.431ZM-3.682,-3.736L-3.682,-3.848L-3.245,-3.848L-3.245,-3.736L-3.682,-3.736Z" style="fill:rgb(230,156,30);fill-rule:nonzero;"/>
                        </g>
                        <g id="svg_78" transform="matrix(192.985,0,0,192.985,3488.45,1355.82)">
                            <path id="svg_79" d="M-2.163,-2.273C-2.229,-2.273 -2.288,-2.289 -2.34,-2.319C-2.392,-2.35 -2.433,-2.392 -2.463,-2.446C-2.493,-2.5 -2.508,-2.563 -2.508,-2.634L-2.508,-2.642C-2.508,-2.714 -2.493,-2.776 -2.463,-2.83C-2.433,-2.883 -2.392,-2.925 -2.34,-2.955C-2.288,-2.986 -2.229,-3.001 -2.163,-3.001C-2.097,-3.001 -2.038,-2.986 -1.986,-2.955C-1.935,-2.925 -1.894,-2.883 -1.864,-2.83C-1.834,-2.776 -1.819,-2.714 -1.819,-2.642L-1.819,-2.634C-1.819,-2.563 -1.834,-2.5 -1.864,-2.446C-1.894,-2.392 -1.935,-2.35 -1.986,-2.319C-2.038,-2.289 -2.097,-2.273 -2.163,-2.273ZM-2.163,-2.393C-2.121,-2.393 -2.083,-2.403 -2.05,-2.422C-2.017,-2.442 -1.992,-2.469 -1.973,-2.506C-1.954,-2.542 -1.945,-2.585 -1.945,-2.634L-1.945,-2.642C-1.945,-2.691 -1.954,-2.733 -1.973,-2.769C-1.992,-2.805 -2.017,-2.832 -2.05,-2.852C-2.083,-2.871 -2.121,-2.881 -2.163,-2.881C-2.205,-2.881 -2.243,-2.871 -2.276,-2.852C-2.309,-2.832 -2.335,-2.805 -2.354,-2.769C-2.373,-2.733 -2.382,-2.691 -2.382,-2.642L-2.382,-2.634C-2.382,-2.585 -2.373,-2.542 -2.354,-2.506C-2.335,-2.469 -2.309,-2.442 -2.276,-2.422C-2.243,-2.403 -2.205,-2.393 -2.163,-2.393Z" style="fill:rgb(110,112,94);fill-rule:nonzero;"/>
                        </g>
                        <g id="svg_80" transform="matrix(128.657,0,0,128.657,3645.4,1355.82)">
                            <path id="svg_81" d="M-3.746,-3.431L-3.746,-4.131L-3.511,-4.131C-3.462,-4.131 -3.418,-4.122 -3.382,-4.105C-3.345,-4.087 -3.317,-4.062 -3.296,-4.03C-3.276,-3.997 -3.265,-3.957 -3.265,-3.911C-3.265,-3.866 -3.276,-3.826 -3.296,-3.794C-3.317,-3.761 -3.345,-3.736 -3.382,-3.719C-3.418,-3.701 -3.462,-3.693 -3.511,-3.693L-3.69,-3.693L-3.69,-3.795L-3.505,-3.795C-3.469,-3.795 -3.44,-3.806 -3.419,-3.827C-3.397,-3.849 -3.387,-3.877 -3.387,-3.911C-3.387,-3.945 -3.397,-3.973 -3.419,-3.995C-3.44,-4.016 -3.469,-4.027 -3.505,-4.027L-3.675,-4.027L-3.624,-4.074L-3.624,-3.431L-3.746,-3.431Z" style="fill:rgb(110,112,94);fill-rule:nonzero;"/>
                        </g>
                        <g id="svg_82" transform="matrix(128.657,0,0,128.657,3725.74,1355.82)">
                            <path id="svg_83" d="M-3.636,-3.431C-3.67,-3.431 -3.698,-3.442 -3.719,-3.464C-3.741,-3.486 -3.752,-3.514 -3.752,-3.548L-3.752,-4.014C-3.752,-4.048 -3.741,-4.076 -3.719,-4.098C-3.698,-4.12 -3.67,-4.131 -3.636,-4.131L-3.295,-4.131L-3.295,-4.019L-3.595,-4.019C-3.605,-4.019 -3.614,-4.016 -3.621,-4.009C-3.628,-4.002 -3.631,-3.993 -3.631,-3.983L-3.631,-3.579C-3.631,-3.569 -3.628,-3.56 -3.621,-3.553C-3.614,-3.546 -3.605,-3.543 -3.595,-3.543L-3.295,-3.543L-3.295,-3.431L-3.636,-3.431ZM-3.693,-3.729L-3.693,-3.836L-3.316,-3.836L-3.316,-3.729L-3.693,-3.729Z" style="fill:rgb(110,112,94);fill-rule:nonzero;"/>
                        </g>
                        <g id="svg_84" transform="matrix(128.657,0,0,128.657,3805.67,1355.82)">
                            <path id="svg_85" d="M-3.746,-3.431L-3.746,-4.131L-3.496,-4.131C-3.422,-4.131 -3.363,-4.112 -3.318,-4.075C-3.274,-4.037 -3.251,-3.983 -3.251,-3.911C-3.251,-3.838 -3.274,-3.783 -3.318,-3.746C-3.363,-3.709 -3.422,-3.69 -3.496,-3.69L-3.69,-3.69L-3.69,-3.793L-3.502,-3.793C-3.464,-3.793 -3.434,-3.803 -3.411,-3.823C-3.388,-3.843 -3.377,-3.872 -3.377,-3.909C-3.377,-3.945 -3.388,-3.974 -3.411,-3.995C-3.434,-4.017 -3.464,-4.027 -3.502,-4.027L-3.675,-4.027L-3.624,-4.074L-3.624,-3.431L-3.746,-3.431ZM-3.371,-3.431L-3.546,-3.743L-3.413,-3.743L-3.23,-3.431L-3.371,-3.431Z" style="fill:rgb(110,112,94);fill-rule:nonzero;"/>
                        </g>
                        <g id="svg_86" transform="matrix(128.657,0,0,128.657,3891.18,1355.82)">
                            <path id="svg_87" d="M-3.819,-3.431L-3.563,-4.131L-3.412,-4.131L-3.157,-3.431L-3.283,-3.431L-3.496,-4.037L-3.479,-4.037L-3.693,-3.431L-3.819,-3.431ZM-3.707,-3.603L-3.667,-3.707L-3.307,-3.707L-3.266,-3.603L-3.707,-3.603Z" style="fill:rgb(110,112,94);fill-rule:nonzero;"/>
                        </g>
                        <g id="svg_88" transform="matrix(128.657,0,0,128.657,3971.71,1355.82)">
                            <path id="svg_89" d="M-3.612,-3.431L-3.612,-4.079L-3.488,-4.079L-3.488,-3.431L-3.612,-3.431ZM-3.811,-4.019L-3.811,-4.131L-3.286,-4.131L-3.286,-4.019L-3.811,-4.019Z" style="fill:rgb(110,112,94);fill-rule:nonzero;"/>
                        </g>
                        <g id="svg_90" transform="matrix(128.657,0,0,128.657,4047.95,1355.82)">
                            <path id="svg_91" d="M-3.666,-3.47L-3.666,-4.092L-3.542,-4.092L-3.542,-3.47L-3.666,-3.47ZM-3.783,-4.019L-3.783,-4.131L-3.425,-4.131L-3.425,-4.019L-3.783,-4.019ZM-3.783,-3.431L-3.783,-3.543L-3.425,-3.543L-3.425,-3.431L-3.783,-3.431Z" style="fill:rgb(110,112,94);fill-rule:nonzero;"/>
                        </g>
                        <g id="svg_92" transform="matrix(128.657,0,0,128.657,4107.45,1355.82)">
                            <path id="svg_93" d="M-3.438,-3.417C-3.504,-3.417 -3.563,-3.433 -3.615,-3.463C-3.667,-3.494 -3.708,-3.536 -3.738,-3.59C-3.768,-3.644 -3.783,-3.707 -3.783,-3.778L-3.783,-3.786C-3.783,-3.858 -3.768,-3.92 -3.738,-3.974C-3.708,-4.027 -3.667,-4.069 -3.615,-4.099C-3.563,-4.13 -3.504,-4.145 -3.438,-4.145C-3.372,-4.145 -3.313,-4.13 -3.261,-4.099C-3.21,-4.069 -3.169,-4.027 -3.139,-3.974C-3.109,-3.92 -3.094,-3.858 -3.094,-3.786L-3.094,-3.778C-3.094,-3.707 -3.109,-3.644 -3.139,-3.59C-3.169,-3.536 -3.21,-3.494 -3.261,-3.463C-3.313,-3.433 -3.372,-3.417 -3.438,-3.417ZM-3.438,-3.537C-3.396,-3.537 -3.358,-3.547 -3.325,-3.566C-3.292,-3.586 -3.267,-3.613 -3.248,-3.65C-3.229,-3.686 -3.22,-3.729 -3.22,-3.778L-3.22,-3.786C-3.22,-3.835 -3.229,-3.877 -3.248,-3.913C-3.267,-3.949 -3.292,-3.976 -3.325,-3.996C-3.358,-4.015 -3.396,-4.025 -3.438,-4.025C-3.48,-4.025 -3.518,-4.015 -3.551,-3.996C-3.584,-3.976 -3.61,-3.949 -3.629,-3.913C-3.648,-3.877 -3.657,-3.835 -3.657,-3.786L-3.657,-3.778C-3.657,-3.729 -3.648,-3.686 -3.629,-3.65C-3.61,-3.613 -3.584,-3.586 -3.551,-3.566C-3.518,-3.547 -3.48,-3.537 -3.438,-3.537Z" style="fill:rgb(110,112,94);fill-rule:nonzero;"/>
                        </g>
                        <g id="svg_94" transform="matrix(128.657,0,0,128.657,4212.08,1355.82)">
                            <path id="svg_95" d="M-3.746,-3.431L-3.746,-4.131L-3.635,-4.131L-3.26,-3.571L-3.312,-3.562L-3.312,-4.131L-3.189,-4.131L-3.189,-3.431L-3.298,-3.431L-3.671,-3.986L-3.624,-3.994L-3.624,-3.431L-3.746,-3.431Z" style="fill:rgb(110,112,94);fill-rule:nonzero;"/>
                        </g>
                        <g id="svg_96" transform="matrix(128.657,0,0,128.657,4309.16,1355.82)">
                            <path id="svg_97" d="M-3.819,-3.431L-3.563,-4.131L-3.412,-4.131L-3.157,-3.431L-3.283,-3.431L-3.496,-4.037L-3.479,-4.037L-3.693,-3.431L-3.819,-3.431ZM-3.707,-3.603L-3.667,-3.707L-3.307,-3.707L-3.266,-3.603L-3.707,-3.603Z" style="fill:rgb(110,112,94);fill-rule:nonzero;"/>
                        </g>
                        <g id="svg_98" transform="matrix(128.657,0,0,128.657,4401.15,1355.82)">
                            <path id="svg_99" d="M-3.632,-3.431C-3.666,-3.431 -3.694,-3.442 -3.716,-3.464C-3.738,-3.486 -3.749,-3.514 -3.749,-3.548L-3.749,-4.131L-3.626,-4.131L-3.626,-3.583C-3.626,-3.573 -3.623,-3.564 -3.615,-3.557C-3.608,-3.55 -3.6,-3.546 -3.59,-3.546L-3.308,-3.546L-3.308,-3.431L-3.632,-3.431Z" style="fill:rgb(110,112,94);fill-rule:nonzero;"/>
                        </g>
                        <g id="svg_102" transform="matrix(192.985,0,0,192.985,4537.42,1355.82)">
                            <path id="svg_103" d="M-2.471,-2.287L-2.471,-2.987L-2.307,-2.987L-2.107,-2.542L-2.164,-2.542L-1.964,-2.987L-1.799,-2.987L-1.799,-2.287L-1.919,-2.287L-1.919,-2.926L-1.876,-2.925L-2.089,-2.436L-2.181,-2.436L-2.395,-2.925L-2.352,-2.926L-2.352,-2.287L-2.471,-2.287Z" style="fill:rgb(110,112,94);fill-rule:nonzero;"/>
                        </g>
                        <g id="svg_104" transform="matrix(128.657,0,0,128.657,4705.18,1355.82)">
                            <path id="svg_105" d="M-3.819,-3.431L-3.563,-4.131L-3.412,-4.131L-3.157,-3.431L-3.283,-3.431L-3.496,-4.037L-3.479,-4.037L-3.693,-3.431L-3.819,-3.431ZM-3.707,-3.603L-3.667,-3.707L-3.307,-3.707L-3.266,-3.603L-3.707,-3.603Z" style="fill:rgb(110,112,94);fill-rule:nonzero;"/>
                        </g>
                        <g id="svg_106" transform="matrix(128.657,0,0,128.657,4796.14,1355.82)">
                            <path id="svg_107" d="M-3.559,-3.417C-3.611,-3.417 -3.657,-3.427 -3.695,-3.446C-3.734,-3.466 -3.767,-3.491 -3.794,-3.523L-3.718,-3.599C-3.691,-3.571 -3.664,-3.551 -3.638,-3.539C-3.612,-3.527 -3.584,-3.521 -3.555,-3.521C-3.515,-3.521 -3.485,-3.53 -3.463,-3.549C-3.44,-3.567 -3.429,-3.591 -3.429,-3.62C-3.429,-3.643 -3.436,-3.662 -3.448,-3.676C-3.461,-3.69 -3.477,-3.701 -3.498,-3.71C-3.519,-3.719 -3.542,-3.727 -3.567,-3.735C-3.591,-3.742 -3.616,-3.75 -3.641,-3.758C-3.666,-3.767 -3.688,-3.778 -3.709,-3.792C-3.73,-3.806 -3.747,-3.825 -3.759,-3.847C-3.772,-3.87 -3.778,-3.898 -3.778,-3.932C-3.778,-3.976 -3.768,-4.013 -3.748,-4.045C-3.728,-4.077 -3.699,-4.101 -3.662,-4.119C-3.626,-4.136 -3.583,-4.145 -3.534,-4.145C-3.489,-4.145 -3.448,-4.137 -3.412,-4.121C-3.375,-4.105 -3.345,-4.084 -3.322,-4.057L-3.4,-3.979C-3.42,-4 -3.441,-4.015 -3.462,-4.026C-3.484,-4.036 -3.508,-4.041 -3.535,-4.041C-3.571,-4.041 -3.601,-4.032 -3.623,-4.015C-3.645,-3.997 -3.656,-3.973 -3.656,-3.944C-3.656,-3.922 -3.65,-3.905 -3.637,-3.892C-3.624,-3.879 -3.607,-3.868 -3.587,-3.861C-3.566,-3.853 -3.543,-3.846 -3.518,-3.839C-3.492,-3.833 -3.467,-3.825 -3.442,-3.817C-3.417,-3.808 -3.394,-3.797 -3.373,-3.783C-3.352,-3.769 -3.336,-3.75 -3.323,-3.727C-3.31,-3.704 -3.304,-3.674 -3.304,-3.638C-3.304,-3.594 -3.314,-3.555 -3.336,-3.522C-3.357,-3.489 -3.387,-3.463 -3.426,-3.445C-3.464,-3.427 -3.508,-3.417 -3.559,-3.417Z" style="fill:rgb(110,112,94);fill-rule:nonzero;"/>
                        </g>
                        <g id="svg_108" transform="matrix(128.657,0,0,128.657,4870.92,1355.82)">
                            <path id="svg_109" d="M-3.612,-3.431L-3.612,-4.079L-3.488,-4.079L-3.488,-3.431L-3.612,-3.431ZM-3.811,-4.019L-3.811,-4.131L-3.286,-4.131L-3.286,-4.019L-3.811,-4.019Z" style="fill:rgb(110,112,94);fill-rule:nonzero;"/>
                        </g>
                        <g id="svg_110" transform="matrix(128.657,0,0,128.657,4945.88,1355.82)">
                            <path id="svg_111" d="M-3.636,-3.431C-3.67,-3.431 -3.698,-3.442 -3.719,-3.464C-3.741,-3.486 -3.752,-3.514 -3.752,-3.548L-3.752,-4.014C-3.752,-4.048 -3.741,-4.076 -3.719,-4.098C-3.698,-4.12 -3.67,-4.131 -3.636,-4.131L-3.295,-4.131L-3.295,-4.019L-3.595,-4.019C-3.605,-4.019 -3.614,-4.016 -3.621,-4.009C-3.628,-4.002 -3.631,-3.993 -3.631,-3.983L-3.631,-3.579C-3.631,-3.569 -3.628,-3.56 -3.621,-3.553C-3.614,-3.546 -3.605,-3.543 -3.595,-3.543L-3.295,-3.543L-3.295,-3.431L-3.636,-3.431ZM-3.693,-3.729L-3.693,-3.836L-3.316,-3.836L-3.316,-3.729L-3.693,-3.729Z" style="fill:rgb(110,112,94);fill-rule:nonzero;"/>
                        </g>
                        <g id="svg_112" transform="matrix(128.657,0,0,128.657,5025.81,1355.82)">
                            <path id="svg_113" d="M-3.746,-3.431L-3.746,-4.131L-3.496,-4.131C-3.422,-4.131 -3.363,-4.112 -3.318,-4.075C-3.274,-4.037 -3.251,-3.983 -3.251,-3.911C-3.251,-3.838 -3.274,-3.783 -3.318,-3.746C-3.363,-3.709 -3.422,-3.69 -3.496,-3.69L-3.69,-3.69L-3.69,-3.793L-3.502,-3.793C-3.464,-3.793 -3.434,-3.803 -3.411,-3.823C-3.388,-3.843 -3.377,-3.872 -3.377,-3.909C-3.377,-3.945 -3.388,-3.974 -3.411,-3.995C-3.434,-4.017 -3.464,-4.027 -3.502,-4.027L-3.675,-4.027L-3.624,-4.074L-3.624,-3.431L-3.746,-3.431ZM-3.371,-3.431L-3.546,-3.743L-3.413,-3.743L-3.23,-3.431L-3.371,-3.431Z" style="fill:rgb(110,112,94);fill-rule:nonzero;"/>
                        </g>
                        <g id="svg_114" transform="matrix(128.657,0,0,128.657,5107.96,1355.82)">
                            <path id="svg_115" d="M-3.487,-3.799L-3.536,-3.799L-3.335,-4.131L-3.201,-4.131L-3.45,-3.721L-3.45,-3.431L-3.573,-3.431L-3.573,-3.721L-3.822,-4.131L-3.689,-4.131L-3.487,-3.799Z" style="fill:rgb(110,112,94);fill-rule:nonzero;"/>
                        </g>
                    </g>
                </g>
                <g id="Layer2">
                    <g id="svg_118" transform="matrix(0.658563,3.55618e-17,3.46945e-18,0.805267,820.209,310.277)">
                        <path id="svg_119" d="M1221.6,837.009L1221.6,907.129L1221.6,691.379L1221.6,761.499L1221.6,691.379L1572.65,799.259L1221.6,907.129L1221.6,837.009Z" style="fill:rgb(230,156,30);fill-rule:nonzero;"/>
                    </g>
                    <g id="svg_120" transform="matrix(0.618961,-1.30625,0.744682,0.352867,1435.63,2619.01)">
                        <path id="svg_121" d="M1794.89,712.807L1794.89,766.747L1794.89,550.997L1794.89,604.937L1985.61,604.937L1985.61,550.997L2145.95,658.877L1985.61,766.747L1985.61,712.807L1794.89,712.807Z" style="fill:rgb(110,112,94);fill-rule:nonzero;"/>
                    </g>
                </g>
            </g>
        </g>
    </g>
</svg>
