<?xml version="1.0" encoding="UTF-8" standalone="no"?>
<!DOCTYPE svg PUBLIC "-//W3C//DTD SVG 1.1//EN" "http://www.w3.org/Graphics/SVG/1.1/DTD/svg11.dtd">
<svg width="100%" height="100%" viewBox="0 0 24445 9445" version="1.1" xmlns="http://www.w3.org/2000/svg" xmlns:xlink="http://www.w3.org/1999/xlink" xml:space="preserve" xmlns:serif="http://www.serif.com/" style="fill-rule:evenodd;clip-rule:evenodd;stroke-linejoin:round;stroke-miterlimit:2;">
    <g transform="matrix(5.55556,0,0,5.55556,0,0)">
        <g id="svg_1" transform="matrix(1.33333,0,0,1.33333,0,0)">
            <g>
                <g id="svg_2" transform="matrix(1,0,0,1,-432.705,183.148)">
                    <g id="svg_3" transform="matrix(840.016,0,0,840.016,734.057,1101.2)">
                        <path id="svg_4" d="M-0.292,-0.34L-0.292,-1.04L-0.075,-1.04C-0.028,-1.04 0.013,-1.032 0.048,-1.015C0.083,-0.998 0.11,-0.974 0.13,-0.943C0.149,-0.912 0.159,-0.874 0.159,-0.829C0.159,-0.785 0.149,-0.748 0.13,-0.716C0.11,-0.685 0.083,-0.661 0.048,-0.644C0.013,-0.628 -0.028,-0.619 -0.075,-0.619L-0.252,-0.619L-0.252,-0.691L-0.071,-0.691C-0.027,-0.691 0.008,-0.704 0.035,-0.729C0.061,-0.754 0.075,-0.787 0.075,-0.829C0.075,-0.871 0.061,-0.904 0.035,-0.929C0.008,-0.954 -0.027,-0.966 -0.071,-0.966L-0.242,-0.966L-0.207,-1L-0.207,-0.34L-0.292,-0.34Z" style="fill:rgb(169,171,125);fill-rule:nonzero;"/>
                    </g>
                    <g id="svg_5" transform="matrix(840.016,0,0,840.016,1269.87,1101.2)">
                        <path id="svg_6" d="M-0.368,-0.34L-0.102,-1.04L0.001,-1.04L0.267,-0.34L0.179,-0.34L-0.057,-0.974L-0.043,-0.974L-0.281,-0.34L-0.368,-0.34ZM-0.258,-0.531L-0.23,-0.604L0.13,-0.604L0.159,-0.531L-0.258,-0.531Z" style="fill:rgb(169,171,125);fill-rule:nonzero;"/>
                    </g>
                    <g id="svg_7" transform="matrix(840.016,0,0,840.016,1922.56,1101.2)">
                        <path id="svg_8" d="M-0.317,-0.34L-0.317,-0.43L-0.071,-0.678C-0.051,-0.698 -0.035,-0.716 -0.024,-0.733C-0.013,-0.75 -0.004,-0.767 0.001,-0.783C0.006,-0.799 0.009,-0.815 0.009,-0.83C0.009,-0.862 -0.001,-0.888 -0.021,-0.907C-0.04,-0.926 -0.067,-0.935 -0.1,-0.935C-0.13,-0.935 -0.156,-0.927 -0.18,-0.911C-0.205,-0.895 -0.227,-0.872 -0.249,-0.842L-0.327,-0.919C-0.3,-0.96 -0.267,-0.992 -0.228,-1.015C-0.189,-1.038 -0.145,-1.05 -0.096,-1.05C-0.05,-1.05 -0.011,-1.041 0.024,-1.024C0.058,-1.006 0.085,-0.982 0.104,-0.951C0.123,-0.92 0.133,-0.884 0.133,-0.843C0.133,-0.818 0.129,-0.794 0.121,-0.769C0.113,-0.744 0.101,-0.718 0.084,-0.692C0.066,-0.665 0.043,-0.637 0.014,-0.608L-0.176,-0.417L-0.182,-0.449L0.162,-0.449L0.162,-0.34L-0.317,-0.34Z" style="fill:rgb(230,156,30);fill-rule:nonzero;"/>
                    </g>
                    <g id="svg_9" transform="matrix(840.016,0,0,840.016,2527.37,1101.2)">
                        <path id="svg_10" d="M0.008,-0.328C-0.057,-0.328 -0.115,-0.343 -0.166,-0.374C-0.217,-0.404 -0.258,-0.446 -0.287,-0.5C-0.316,-0.554 -0.33,-0.617 -0.33,-0.688L-0.33,-0.697C-0.33,-0.767 -0.316,-0.829 -0.287,-0.882C-0.258,-0.936 -0.217,-0.977 -0.166,-1.007C-0.115,-1.037 -0.057,-1.052 0.008,-1.052C0.074,-1.052 0.132,-1.037 0.182,-1.007C0.233,-0.977 0.273,-0.936 0.302,-0.882C0.331,-0.829 0.346,-0.767 0.346,-0.697L0.346,-0.688C0.346,-0.617 0.331,-0.554 0.302,-0.5C0.273,-0.446 0.233,-0.404 0.182,-0.374C0.132,-0.343 0.074,-0.328 0.008,-0.328ZM0.008,-0.411C0.057,-0.411 0.1,-0.423 0.138,-0.446C0.175,-0.468 0.205,-0.501 0.226,-0.542C0.248,-0.584 0.259,-0.632 0.259,-0.688L0.259,-0.697C0.259,-0.752 0.248,-0.799 0.226,-0.84C0.205,-0.881 0.175,-0.912 0.138,-0.935C0.1,-0.957 0.057,-0.969 0.008,-0.969C-0.041,-0.969 -0.084,-0.957 -0.122,-0.935C-0.159,-0.912 -0.189,-0.881 -0.211,-0.84C-0.232,-0.799 -0.243,-0.752 -0.243,-0.697L-0.243,-0.688C-0.243,-0.632 -0.232,-0.584 -0.211,-0.542C-0.189,-0.501 -0.159,-0.468 -0.122,-0.446C-0.084,-0.423 -0.041,-0.411 0.008,-0.411Z" style="fill:rgb(110,112,94);fill-rule:nonzero;"/>
                    </g>
                    <g id="svg_11" transform="matrix(840.016,0,0,840.016,3277.99,1101.2)">
                        <path id="svg_12" d="M-0.292,-0.34L-0.292,-1.04L-0.178,-1.04L0.043,-0.58L0.004,-0.58L0.225,-1.04L0.339,-1.04L0.339,-0.34L0.256,-0.34L0.256,-0.99L0.284,-0.99L0.057,-0.507L-0.01,-0.507L-0.237,-0.99L-0.208,-0.99L-0.208,-0.34L-0.292,-0.34Z" style="fill:rgb(110,112,94);fill-rule:nonzero;"/>
                    </g>
                </g>
                <g id="Layer2">
                    <g id="svg_118" transform="matrix(0.658563,3.55618e-17,3.46945e-18,0.805267,820.209,310.277)">
                        <path id="svg_119" d="M1221.6,837.009L1221.6,907.129L1221.6,691.379L1221.6,761.499L1221.6,691.379L1572.65,799.259L1221.6,907.129L1221.6,837.009Z" style="fill:rgb(230,156,30);fill-rule:nonzero;"/>
                    </g>
                    <g id="svg_120" transform="matrix(0.618961,-1.30625,0.744682,0.352867,1435.63,2619.01)">
                        <path id="svg_121" d="M1794.89,712.807L1794.89,766.747L1794.89,550.997L1794.89,604.937L1985.61,604.937L1985.61,550.997L2145.95,658.877L1985.61,766.747L1985.61,712.807L1794.89,712.807Z" style="fill:rgb(110,112,94);fill-rule:nonzero;"/>
                    </g>
                </g>
            </g>
        </g>
    </g>
</svg>
